<?xml version="1.0" encoding="UTF-8" standalone="no"?>
<svg
   xmlns:dc="http://purl.org/dc/elements/1.1/"
   xmlns:cc="http://creativecommons.org/ns#"
   xmlns:rdf="http://www.w3.org/1999/02/22-rdf-syntax-ns#"
   xmlns:svg="http://www.w3.org/2000/svg"
   xmlns="http://www.w3.org/2000/svg"
   xmlns:sodipodi="http://sodipodi.sourceforge.net/DTD/sodipodi-0.dtd"
   xmlns:inkscape="http://www.inkscape.org/namespaces/inkscape"
   width="144mm"
   height="134mm"
   viewBox="0 0 144 134"
   version="1.1"
   id="svg2086"
   inkscape:version="0.91 r13725"
   sodipodi:docname="splash-example.svg">
  <defs
     id="defs2080" />
  <sodipodi:namedview
     id="base"
     pagecolor="#ffffff"
     bordercolor="#666666"
     borderopacity="1.0"
     inkscape:pageopacity="0.0"
     inkscape:pageshadow="2"
     inkscape:zoom="1.6121292"
     inkscape:cx="241.84032"
     inkscape:cy="286.50685"
     inkscape:document-units="mm"
     inkscape:current-layer="layer1"
     inkscape:document-rotation="0"
     showgrid="false"
     inkscape:snap-nodes="false"
     inkscape:window-width="1280"
     inkscape:window-height="737"
     inkscape:window-x="345"
     inkscape:window-y="1192"
     inkscape:window-maximized="1" />
  <metadata
     id="metadata2083">
    <rdf:RDF>
      <cc:Work
         rdf:about="">
        <dc:format>image/svg+xml</dc:format>
        <dc:type
           rdf:resource="http://purl.org/dc/dcmitype/StillImage" />
        <dc:title></dc:title>
      </cc:Work>
    </rdf:RDF>
  </metadata>
  <g
     inkscape:label="Layer 1"
     inkscape:groupmode="layer"
     id="layer1">
    <path
       style="fill:none;stroke:#000000;stroke-width:0.588;stroke-linecap:butt;stroke-linejoin:miter;stroke-miterlimit:4;stroke-dasharray:none;stroke-opacity:1"
       d="m 74.28368,125.8388 c 7.716716,0.0567 17.66287,-3.00021 17.66287,-3.00021 -7.728575,0.75483 -11.705277,-8.68907 -3.656764,-14.88826 8.473622,-6.52662 16.741714,1.69622 12.537484,9.40311 0,0 9.9255,-6.00754 13.58226,-15.93304 3.65677,-9.925505 -0.0285,-21.700754 -0.0285,-21.700754 -0.32462,7.753077 -11.95486,10.128877 -15.382179,2.110944 -3.162835,-7.399206 6.704419,-14.29939 12.537479,-9.925503 l 0.2612,0 c -4.99629,-8.865621 -10.0867,-14.092485 -19.589811,-16.850795 0,0 -4.157798,6.275859 -11.993722,6.275859 -7.835924,0 -10.730457,-6.1417 -10.730457,-6.1417 -5.196623,0.705098 -10.144414,2.28111 -14.627055,5.485145 0,0 1.497542,9.091381 -2.513421,14.394343 -4.164917,5.506507 -13.419623,4.934269 -13.419623,4.934269 -3.050245,5.451395 -2.793767,14.406746 -0.119919,22.004672 -0.04436,-9.145054 10.084391,-12.145862 14.109392,-5.966401 5.261096,8.077201 -5.350043,14.106041 -10.593906,11.387461 0,0 6.713939,9.40311 13.76627,13.05987 9.162623,4.16922 10.481686,5.2943 18.198402,5.35099 z"
       id="path2715"
       sodipodi:nodetypes="zcscscscccsccsccsccz"
       inkscape:connector-curvature="0" />
    <path
       style="fill:none;stroke:#000000;stroke-width:0.588;stroke-linecap:butt;stroke-linejoin:miter;stroke-miterlimit:4;stroke-dasharray:none;stroke-opacity:1"
       d="m 104.25379,110.05889 c 0,0 -1.74407,-1.6099 -0.13416,-4.29309 1.60991,-2.68318 4.02477,-0.93911 4.02477,-0.93911"
       id="path2717"
       sodipodi:nodetypes="csc"
       inkscape:connector-curvature="0" />
    <path
       style="fill:none;stroke:#000000;stroke-width:0.588;stroke-linecap:butt;stroke-linejoin:miter;stroke-miterlimit:4;stroke-dasharray:none;stroke-opacity:1"
       d="m 104.26867,99.77481 4.62171,3.21869 c -1.77173,-1.16335 -2.4896,-3.85978 -0.74278,-4.91057 1.49339,-0.89834 3.46014,0.38456 2.84731,2.39339 l 1.73314,-4.621707"
       id="path2719"
       sodipodi:nodetypes="ccscc"
       inkscape:connector-curvature="0" />
    <path
       style="fill:none;stroke:#000000;stroke-width:0.588;stroke-linecap:butt;stroke-linejoin:miter;stroke-miterlimit:4;stroke-dasharray:none;stroke-opacity:1"
       d="m 109.13797,102.12692 c -2.80604,-2.97109 1.11416,-4.58044 0.9491,-1.7744"
       id="path2721"
       inkscape:connector-curvature="0" />
    <path
       style="fill:none;stroke:#000000;stroke-width:0.588;stroke-linecap:butt;stroke-linejoin:miter;stroke-miterlimit:4;stroke-dasharray:none;stroke-opacity:1"
       d="m 113.71841,93.791352 -2.59971,-1.320488 c 3.31452,-1.445513 3.81588,-2.763155 -0.1238,-3.878932 l 3.38375,-2.310852"
       id="path2723"
       sodipodi:nodetypes="cccc"
       inkscape:connector-curvature="0" />
    <path
       style="fill:none;stroke:#000000;stroke-width:0.588;stroke-linecap:butt;stroke-linejoin:miter;stroke-miterlimit:4;stroke-dasharray:none;stroke-opacity:1"
       d="m 104.30994,105.38688 c -5.199426,-3.83767 -1.40302,-13.163608 7.22141,-7.26268"
       id="path2725"
       inkscape:connector-curvature="0" />
    <path
       style="fill:none;stroke:#000000;stroke-width:0.588;stroke-linecap:butt;stroke-linejoin:miter;stroke-miterlimit:4;stroke-dasharray:none;stroke-opacity:1"
       d="m 112.39792,96.84498 c -7.26268,-3.548812 -9.44973,-6.231052 1.27922,-6.726236"
       id="path2727"
       inkscape:connector-curvature="0" />
    <path
       style="fill:none;stroke:#000000;stroke-width:0.58799899;stroke-linecap:butt;stroke-linejoin:miter;stroke-miterlimit:4;stroke-dasharray:none;stroke-opacity:1"
       d="m 100.28769,69.482485 4.54447,-3.326873 c -1.67541,1.298249 -4.45886,1.102112 -4.885825,-0.891187 -0.365023,-1.704114 1.486765,-3.148021 3.187945,-1.916386 l -3.80902,-3.139327"
       id="path2719-8"
       sodipodi:nodetypes="ccscc"
       inkscape:connector-curvature="0" />
    <path
       style="fill:none;stroke:#000000;stroke-width:0.588;stroke-linecap:butt;stroke-linejoin:miter;stroke-miterlimit:4;stroke-dasharray:none;stroke-opacity:1"
       d="m 97.317544,59.673307 -1.851599,2.019928 c 1.394435,-4.21574 -0.195447,-5.065678 -2.637129,-1.066073 L 93.389907,56.5312"
       id="path2744"
       sodipodi:nodetypes="cccc"
       inkscape:connector-curvature="0" />
    <circle
       style="fill:none;stroke:#000000;stroke-width:0.588;stroke-linecap:square;stroke-linejoin:bevel;stroke-miterlimit:4;stroke-dasharray:none"
       id="path2746"
       cx="80.14817"
       cy="61.076035"
       r="2.6371267" />
    <circle
       style="fill:none;stroke:#000000;stroke-width:0.58799899;stroke-linecap:square;stroke-linejoin:bevel;stroke-miterlimit:4;stroke-dasharray:none"
       id="path2748"
       cx="98.608055"
       cy="80.994759"
       r="2.9176719" />
    <circle
       style="fill:none;stroke:#000000;stroke-width:0.58799899;stroke-linecap:square;stroke-linejoin:bevel;stroke-miterlimit:4;stroke-dasharray:none"
       id="path2750"
       cx="88.227875"
       cy="103.10174"
       r="2.5249088" />
    <circle
       style="fill:none;stroke:#000000;stroke-width:0.588;stroke-linecap:square;stroke-linejoin:bevel;stroke-miterlimit:4;stroke-dasharray:none"
       id="path2752"
       cx="47.380463"
       cy="71.343994"
       r="2.6932359" />
    <circle
       style="fill:none;stroke:#000000;stroke-width:0.58799899;stroke-linecap:square;stroke-linejoin:bevel;stroke-miterlimit:4;stroke-dasharray:none"
       id="path2754"
       cx="46.370499"
       cy="100.29628"
       r="1.9638178" />
    <path
       style="fill:none;stroke:#000000;stroke-width:0.588;stroke-linecap:butt;stroke-linejoin:miter;stroke-miterlimit:4;stroke-dasharray:none;stroke-opacity:1"
       d="m 65.447587,59.448872 -0.561091,3.703198 c -0.996433,-3.694204 -4.616597,-3.41472 -2.973782,1.514946 -5.520249,-11.619934 -7.157265,2.206506 -1.178291,-5.218145"
       id="path2756"
       sodipodi:nodetypes="cccc"
       inkscape:connector-curvature="0" />
    <path
       style="fill:none;stroke:#000000;stroke-width:0.588;stroke-linecap:butt;stroke-linejoin:miter;stroke-miterlimit:4;stroke-dasharray:none;stroke-opacity:1"
       d="m 43.677263,82.734139 0.448874,6.73309 -5.218144,-0.168328"
       id="path2758"
       inkscape:connector-curvature="0" />
    <path
       style="fill:none;stroke:#000000;stroke-width:0.588;stroke-linecap:butt;stroke-linejoin:miter;stroke-miterlimit:4;stroke-dasharray:none;stroke-opacity:1"
       d="m 48.334316,110.9009 c 5.105927,-2.35659 6.508655,1.12218 5.274255,4.54483"
       id="path2760"
       inkscape:connector-curvature="0" />
    <path
       style="fill:none;stroke:#000000;stroke-width:0.588;stroke-linecap:butt;stroke-linejoin:miter;stroke-miterlimit:4;stroke-dasharray:none;stroke-opacity:1"
       d="m 58.882825,113.81857 4.657053,3.59098 -3.254327,4.3204"
       id="path2762"
       inkscape:connector-curvature="0" />
    <path
       style="fill:none;stroke:#000000;stroke-width:0.588;stroke-linecap:butt;stroke-linejoin:miter;stroke-miterlimit:4;stroke-dasharray:none;stroke-opacity:1"
       d="m 58.433952,115.2213 3.366545,2.35658 -2.581019,3.31043"
       id="path2764"
       inkscape:connector-curvature="0" />
    <path
       style="fill:none;stroke:#000000;stroke-width:0.588;stroke-linecap:butt;stroke-linejoin:miter;stroke-miterlimit:4;stroke-dasharray:none;stroke-opacity:1"
       d="m 71.170713,117.40955 0.224435,6.34033 c 0.214455,-7.42074 6.792237,-3.44863 2.861564,-0.0561 l 8.472472,0"
       id="path2766"
       sodipodi:nodetypes="cccc"
       inkscape:connector-curvature="0" />
    <path
       style="fill:none;stroke:#000000;stroke-width:0.588;stroke-linecap:butt;stroke-linejoin:miter;stroke-miterlimit:4;stroke-dasharray:none;stroke-opacity:1"
       d="m 80.179448,123.5586 c 0,-25.23337 9.467969,-47.082379 20.100902,-57.556609"
       id="path2768"
       sodipodi:nodetypes="cc"
       inkscape:connector-curvature="0" />
    <path
       style="fill:none;stroke:#000000;stroke-width:0.588;stroke-linecap:butt;stroke-linejoin:miter;stroke-miterlimit:4;stroke-dasharray:none;stroke-opacity:1"
       d="m 77.05476,123.74457 c 0,-12.85473 1.633136,-47.861094 2.902739,-60.081026"
       id="path2770"
       sodipodi:nodetypes="cc"
       inkscape:connector-curvature="0" />
    <path
       style="fill:none;stroke:#000000;stroke-width:0.588;stroke-linecap:butt;stroke-linejoin:miter;stroke-miterlimit:4;stroke-dasharray:none;stroke-opacity:1"
       d="M 53.096217,110.93916 C 63.411744,96.65612 69.669242,76.040436 62.210321,60.805193"
       id="path2772"
       sodipodi:nodetypes="cc"
       inkscape:connector-curvature="0" />
    <path
       style="fill:none;stroke:#000000;stroke-width:0.588;stroke-linecap:butt;stroke-linejoin:miter;stroke-miterlimit:4;stroke-dasharray:none;stroke-opacity:1"
       d="m 61.637026,115.81796 c 8.093724,-11.26773 3.057959,-11.9623 -2.813958,-14.02541"
       id="path2774"
       sodipodi:nodetypes="cc"
       inkscape:connector-curvature="0" />
    <path
       style="fill:none;stroke:#000000;stroke-width:0.588;stroke-linecap:butt;stroke-linejoin:miter;stroke-miterlimit:4;stroke-dasharray:none;stroke-opacity:1"
       d="m 45.003943,84.037836 c 1.595711,0.841375 1.450644,1.334594 0.261116,1.827812"
       id="path2778"
       sodipodi:nodetypes="cc"
       inkscape:connector-curvature="0" />
    <path
       style="fill:none;stroke:#000000;stroke-width:0.588;stroke-linecap:butt;stroke-linejoin:miter;stroke-miterlimit:4;stroke-dasharray:none;stroke-opacity:1"
       d="m 44.945919,86.910111 c 2.059914,0.667297 1.682748,1.218542 0.203089,1.624721"
       id="path2780"
       sodipodi:nodetypes="cc"
       inkscape:connector-curvature="0" />
    <path
       style="fill:none;stroke:#000000;stroke-width:0.588;stroke-linecap:butt;stroke-linejoin:miter;stroke-miterlimit:4;stroke-dasharray:none;stroke-opacity:1"
       d="M 95.747466,62.945476 C 94.55794,63.960925 94.209785,62.829424 94.209785,61.901012"
       id="path2782"
       inkscape:connector-curvature="0" />
    <path
       style="fill:none;stroke:#000000;stroke-width:0.588;stroke-linecap:butt;stroke-linejoin:miter;stroke-miterlimit:4;stroke-dasharray:none;stroke-opacity:1"
       d="m 93.426438,62.046075 c -1.450644,0.986438 -1.798799,0.40618 -1.59571,-0.928413"
       id="path2784"
       inkscape:connector-curvature="0" />
    <g
       id="g4236">
      <path
         sodipodi:nodetypes="czcsc"
         inkscape:connector-curvature="0"
         id="path4170"
         d="m 131.06368,53.921665 c -2.31222,-10.808892 -20.24743,-9.359552 -19.80528,4.327218 0.44214,13.686771 18.53779,14.538256 19.94958,2.592256 -2.51471,4.537386 -8.48889,2.390692 -8.89986,-3.028966 -0.40297,-5.314354 5.29553,-8.903362 8.75556,-3.890508 z"
         style="fill:none;fill-rule:evenodd;stroke:#000000;stroke-width:0.588;stroke-linecap:butt;stroke-linejoin:miter;stroke-miterlimit:4;stroke-dasharray:none;stroke-opacity:1" />
      <path
         inkscape:connector-curvature="0"
         id="path4172"
         d="m 113.57155,61.544409 c 4.17136,-3.029081 1.48669,-4.237335 -0.48177,-5.004378"
         style="fill:none;fill-rule:evenodd;stroke:#000000;stroke-width:0.588;stroke-linecap:butt;stroke-linejoin:miter;stroke-miterlimit:4;stroke-dasharray:none;stroke-opacity:1" />
      <path
         sodipodi:nodetypes="csc"
         inkscape:connector-curvature="0"
         id="path4174"
         d="m 115.87554,58.694466 c 4.57834,-0.554765 4.8188,-8.95848 9.51402,-11.293199 5.71338,-2.840999 11.94584,8.39029 3.81041,9.844054"
         style="fill:none;fill-rule:evenodd;stroke:#000000;stroke-width:0.588;stroke-linecap:butt;stroke-linejoin:miter;stroke-miterlimit:4;stroke-dasharray:none;stroke-opacity:1" />
      <circle
         transform="matrix(0.95320168,0.30233516,-0.30233516,0.95320168,0,0)"
         r="1.8362098"
         cy="16.227854"
         cx="138.86736"
         id="path4176"
         style="color:#000000;clip-rule:nonzero;display:inline;overflow:visible;visibility:visible;opacity:1;isolation:auto;mix-blend-mode:normal;color-interpolation:sRGB;color-interpolation-filters:linearRGB;solid-color:#000000;solid-opacity:1;fill:none;fill-opacity:1;fill-rule:evenodd;stroke:#000000;stroke-width:0.588;stroke-linecap:butt;stroke-linejoin:miter;stroke-miterlimit:4;stroke-dasharray:none;stroke-dashoffset:0;stroke-opacity:1;color-rendering:auto;image-rendering:auto;shape-rendering:auto;text-rendering:auto;enable-background:accumulate" />
    </g>
    <g
       id="g4242">
      <path
         sodipodi:nodetypes="ccccc"
         inkscape:connector-curvature="0"
         id="path4178"
         d="m 95.559975,11.750237 c -1.795423,7.043049 -8.084088,11.135527 -16.42193,11.405302 -1.165404,7.383091 -0.903824,12.334427 4.31,19.580574 6.794033,-4.973036 15.988717,-3.493632 19.234985,3.369177 15.8918,-7.527684 12.80734,-35.908642 -7.123055,-34.355053 z"
         style="fill:none;fill-rule:evenodd;stroke:#000000;stroke-width:0.588;stroke-linecap:butt;stroke-linejoin:miter;stroke-miterlimit:4;stroke-dasharray:none;stroke-opacity:1" />
      <path
         sodipodi:nodetypes="cccc"
         inkscape:connector-curvature="0"
         id="path4180"
         d="m 108.07608,22.006228 -3.49274,1.618461 c 1.55525,-3.126086 1.61797,-4.693085 -2.26842,-2.134864 l 1.82319,-3.609735"
         style="fill:none;fill-rule:evenodd;stroke:#000000;stroke-width:0.588;stroke-linecap:butt;stroke-linejoin:miter;stroke-miterlimit:4;stroke-dasharray:none;stroke-opacity:1" />
      <path
         sodipodi:nodetypes="cccc"
         inkscape:connector-curvature="0"
         id="path4182"
         d="m 84.935943,28.359039 -4.074517,0.791615 c 6.704125,-0.71369 2.394422,5.447287 0.716204,2.488649 l 1.407035,5.179741"
         style="fill:none;fill-rule:evenodd;stroke:#000000;stroke-width:0.588;stroke-linecap:butt;stroke-linejoin:miter;stroke-miterlimit:4;stroke-dasharray:none;stroke-opacity:1" />
      <path
         sodipodi:nodetypes="cc"
         inkscape:connector-curvature="0"
         id="path4184"
         d="m 81.173278,29.943673 c 3.449449,-1.013743 3.14207,3.050499 0.261115,1.1979"
         style="fill:none;fill-rule:evenodd;stroke:#000000;stroke-width:0.588;stroke-linecap:butt;stroke-linejoin:miter;stroke-miterlimit:4;stroke-dasharray:none;stroke-opacity:1" />
      <path
         sodipodi:nodetypes="cc"
         inkscape:connector-curvature="0"
         id="path4186"
         d="m 108.32363,39.172195 c -1.34359,-3.636247 -0.67436,-4.931921 2.72668,-6.443713"
         style="fill:none;fill-rule:evenodd;stroke:#000000;stroke-width:0.588;stroke-linecap:butt;stroke-linejoin:miter;stroke-miterlimit:4;stroke-dasharray:none;stroke-opacity:1" />
      <circle
         transform="matrix(0.99223803,0.12435307,-0.12435307,0.99223803,0,0)"
         r="1.5641787"
         cy="24.649677"
         cx="99.840569"
         id="path4188"
         style="color:#000000;clip-rule:nonzero;display:inline;overflow:visible;visibility:visible;opacity:1;isolation:auto;mix-blend-mode:normal;color-interpolation:sRGB;color-interpolation-filters:linearRGB;solid-color:#000000;solid-opacity:1;fill:none;fill-opacity:1;fill-rule:evenodd;stroke:#000000;stroke-width:0.588;stroke-linecap:butt;stroke-linejoin:miter;stroke-miterlimit:4;stroke-dasharray:none;stroke-dashoffset:0;stroke-opacity:1;color-rendering:auto;image-rendering:auto;shape-rendering:auto;text-rendering:auto;enable-background:accumulate" />
      <circle
         cx="93.97242"
         cy="10.555672"
         r="1.7001941"
         transform="matrix(0.99223803,0.12435307,-0.12435307,0.99223803,0,0)"
         id="path4190"
         style="color:#000000;clip-rule:nonzero;display:inline;overflow:visible;visibility:visible;opacity:1;isolation:auto;mix-blend-mode:normal;color-interpolation:sRGB;color-interpolation-filters:linearRGB;solid-color:#000000;solid-opacity:1;fill:none;fill-opacity:1;fill-rule:evenodd;stroke:#000000;stroke-width:0.588;stroke-linecap:butt;stroke-linejoin:miter;stroke-miterlimit:4;stroke-dasharray:none;stroke-dashoffset:0;stroke-opacity:1;color-rendering:auto;image-rendering:auto;shape-rendering:auto;text-rendering:auto;enable-background:accumulate" />
      <path
         sodipodi:nodetypes="cc"
         inkscape:connector-curvature="0"
         id="path4194"
         d="m 84.538815,30.434003 c 11.590683,-1.700219 18.346075,2.36778 23.178555,5.372304"
         style="fill:none;fill-rule:evenodd;stroke:#000000;stroke-width:0.588;stroke-linecap:butt;stroke-linejoin:miter;stroke-miterlimit:4;stroke-dasharray:none;stroke-opacity:1" />
      <path
         sodipodi:nodetypes="cc"
         inkscape:connector-curvature="0"
         id="path4196"
         d="m 93.223943,23.464743 c 3.457159,4.134418 8.161947,1.609797 12.170207,-3.028346"
         style="fill:none;fill-rule:evenodd;stroke:#000000;stroke-width:0.588;stroke-linecap:butt;stroke-linejoin:miter;stroke-miterlimit:4;stroke-dasharray:none;stroke-opacity:1" />
    </g>
    <g
       id="g4290">
      <path
         sodipodi:nodetypes="cczc"
         inkscape:connector-curvature="0"
         id="path4198"
         d="M 45.985169,19.976306 C 52.449837,20.429917 55.999384,24.430033 54.8095,30.577555 66.060797,33.433297 73.400392,20.063039 67.211353,12.49178 61.022313,4.920521 47.019539,7.8371391 45.985169,19.976306 Z"
         style="fill:none;fill-rule:evenodd;stroke:#000000;stroke-width:0.588;stroke-linecap:butt;stroke-linejoin:miter;stroke-miterlimit:4;stroke-dasharray:none;stroke-opacity:1" />
      <path
         sodipodi:nodetypes="cssssc"
         inkscape:connector-curvature="0"
         id="path4200"
         d="m 56.722561,12.412768 c -3.203647,0.418813 -4.689284,1.489348 -4.033584,2.209205 0.655701,0.719856 1.698541,0.348204 0.765782,-0.414835 -0.932759,-0.763039 -2.834737,0.943729 -1.605454,2.053466 1.229285,1.109741 3.160462,-0.141754 2.964287,-1.774902 -0.196178,-1.633147 -1.555235,-3.579276 -1.555235,-3.579276"
         style="fill:none;fill-rule:evenodd;stroke:#000000;stroke-width:0.588;stroke-linecap:butt;stroke-linejoin:miter;stroke-miterlimit:4;stroke-dasharray:none;stroke-opacity:1" />
      <path
         sodipodi:nodetypes="ccc"
         inkscape:connector-curvature="0"
         id="path4202"
         d="m 62.667405,23.753501 1.084008,-4.41148 3.416823,0.775017"
         style="fill:none;fill-rule:evenodd;stroke:#000000;stroke-width:0.588;stroke-linecap:butt;stroke-linejoin:miter;stroke-miterlimit:4;stroke-dasharray:none;stroke-opacity:1" />
      <path
         sodipodi:nodetypes="cc"
         inkscape:connector-curvature="0"
         id="path4204"
         d="m 54.708994,16.656242 c 0.391118,1.346356 -1.017887,1.711016 -1.432721,0.945235"
         style="fill:none;fill-rule:evenodd;stroke:#000000;stroke-width:0.588;stroke-linecap:butt;stroke-linejoin:miter;stroke-miterlimit:4;stroke-dasharray:none;stroke-opacity:1" />
      <circle
         transform="matrix(0.92121798,0.38904683,-0.38904683,0.92121798,0,0)"
         r="1.0881243"
         cy="-1.5028253"
         cx="59.317307"
         id="path4206"
         style="color:#000000;clip-rule:nonzero;display:inline;overflow:visible;visibility:visible;opacity:1;isolation:auto;mix-blend-mode:normal;color-interpolation:sRGB;color-interpolation-filters:linearRGB;solid-color:#000000;solid-opacity:1;fill:none;fill-opacity:1;fill-rule:evenodd;stroke:#000000;stroke-width:0.588;stroke-linecap:butt;stroke-linejoin:miter;stroke-miterlimit:4;stroke-dasharray:none;stroke-dashoffset:0;stroke-opacity:1;color-rendering:auto;image-rendering:auto;shape-rendering:auto;text-rendering:auto;enable-background:accumulate" />
    </g>
    <path
       style="fill:none;fill-rule:evenodd;stroke:#000000;stroke-width:0.588;stroke-linecap:butt;stroke-linejoin:miter;stroke-miterlimit:4;stroke-dasharray:none;stroke-opacity:1"
       d="m 38.893428,61.945683 c -1.723794,-5.6658 -8.002016,-1.359804 -4.669635,4.420855 3.332381,5.780662 9.249057,-0.952108 11.493314,2.856326"
       id="path4224"
       inkscape:connector-curvature="0"
       sodipodi:nodetypes="csc" />
    <g
       id="g4260">
      <path
         sodipodi:nodetypes="zccccz"
         inkscape:connector-curvature="0"
         id="path4208"
         d="M 25.734219,32.960189 C 14.785753,37.147631 13.28511,46.318981 13.977591,55.825684 c 6.485034,0.362988 9.408356,3.273837 9.386119,10.271961 10.174479,3.796049 26.127005,0.07107 27.40469,-8.502714 C 44.139864,54.347265 42.357554,46.324247 48.231651,39.618675 44.214685,34.686679 36.682684,28.772747 25.734219,32.960189 Z"
         style="fill:none;fill-rule:evenodd;stroke:#000000;stroke-width:0.588;stroke-linecap:butt;stroke-linejoin:miter;stroke-miterlimit:4;stroke-dasharray:none;stroke-opacity:1" />
      <path
         inkscape:connector-curvature="0"
         id="path4210"
         d="m 21.337106,42.06407 -1.370927,5.272966 -4.209993,-1.20859"
         style="fill:none;fill-rule:evenodd;stroke:#000000;stroke-width:0.588;stroke-linecap:butt;stroke-linejoin:miter;stroke-miterlimit:4;stroke-dasharray:none;stroke-opacity:1" />
      <path
         inkscape:connector-curvature="0"
         id="path4212"
         d="m 26.03996,65.576137 c 2.72031,-4.080468 4.012459,-2.924336 5.032574,0.680077"
         style="fill:none;fill-rule:evenodd;stroke:#000000;stroke-width:0.588;stroke-linecap:butt;stroke-linejoin:miter;stroke-miterlimit:4;stroke-dasharray:none;stroke-opacity:1" />
      <path
         sodipodi:nodetypes="cccc"
         inkscape:connector-curvature="0"
         id="path4214"
         d="m 36.400043,62.558104 2.108239,3.196365 c -2.792496,-5.698811 5.150111,-4.556511 2.675204,-1.202286 l 4.622787,-3.604758"
         style="fill:none;fill-rule:evenodd;stroke:#000000;stroke-width:0.588;stroke-linecap:butt;stroke-linejoin:miter;stroke-miterlimit:4;stroke-dasharray:none;stroke-opacity:1" />
      <path
         inkscape:connector-curvature="0"
         id="path4216"
         d="m 44.98338,39.302928 c -2.9567,1.351363 -4.861041,-1.175832 -4.169852,-3.828751"
         style="fill:none;fill-rule:evenodd;stroke:#000000;stroke-width:0.588;stroke-linecap:butt;stroke-linejoin:miter;stroke-miterlimit:4;stroke-dasharray:none;stroke-opacity:1" />
      <path
         inkscape:connector-curvature="0"
         id="path4218"
         d="m 35.583949,36.511127 -4.012458,-0.06801 0.06801,-3.604412"
         style="fill:none;fill-rule:evenodd;stroke:#000000;stroke-width:0.588;stroke-linecap:butt;stroke-linejoin:miter;stroke-miterlimit:4;stroke-dasharray:none;stroke-opacity:1" />
      <circle
         r="2.1762486"
         cy="61.993927"
         cx="17.856125"
         id="path4220"
         style="color:#000000;clip-rule:nonzero;display:inline;overflow:visible;visibility:visible;opacity:1;isolation:auto;mix-blend-mode:normal;color-interpolation:sRGB;color-interpolation-filters:linearRGB;solid-color:#000000;solid-opacity:1;fill:none;fill-opacity:1;fill-rule:evenodd;stroke:#000000;stroke-width:0.588;stroke-linecap:butt;stroke-linejoin:miter;stroke-miterlimit:4;stroke-dasharray:none;stroke-dashoffset:0;stroke-opacity:1;color-rendering:auto;image-rendering:auto;shape-rendering:auto;text-rendering:auto;enable-background:accumulate" />
      <circle
         r="1.9722252"
         cy="48.616859"
         cx="49.591805"
         id="path4222"
         style="color:#000000;clip-rule:nonzero;display:inline;overflow:visible;visibility:visible;opacity:1;isolation:auto;mix-blend-mode:normal;color-interpolation:sRGB;color-interpolation-filters:linearRGB;solid-color:#000000;solid-opacity:1;fill:none;fill-opacity:1;fill-rule:evenodd;stroke:#000000;stroke-width:0.588;stroke-linecap:butt;stroke-linejoin:miter;stroke-miterlimit:4;stroke-dasharray:none;stroke-dashoffset:0;stroke-opacity:1;color-rendering:auto;image-rendering:auto;shape-rendering:auto;text-rendering:auto;enable-background:accumulate" />
      <path
         sodipodi:nodetypes="cc"
         inkscape:connector-curvature="0"
         id="path4226"
         d="m 29.009748,63.037295 c 0.04615,-9.563056 4.419808,-17.623423 4.465609,-26.29959"
         style="fill:none;fill-rule:evenodd;stroke:#000000;stroke-width:0.588;stroke-linecap:butt;stroke-linejoin:miter;stroke-miterlimit:4;stroke-dasharray:none;stroke-opacity:1" />
    </g>
    <path
       style="fill:none;fill-rule:evenodd;stroke:#000000;stroke-width:0.588;stroke-linecap:butt;stroke-linejoin:miter;stroke-miterlimit:4;stroke-dasharray:none;stroke-opacity:1"
       d="m 20.758604,44.987803 c 12.309406,5.168588 0.473441,-10.107361 10.189391,-19.425926 5.223964,-5.010302 18.455454,-9.695299 32.201411,-4.43639"
       id="path4228"
       inkscape:connector-curvature="0"
       sodipodi:nodetypes="csc" />
    <path
       style="fill:none;fill-rule:evenodd;stroke:#000000;stroke-width:0.588;stroke-linecap:butt;stroke-linejoin:miter;stroke-miterlimit:4;stroke-dasharray:none;stroke-opacity:1"
       d="m 41.454472,39.18668 c -4.511762,5.416675 2.970486,8.001667 12.559581,0.452804 9.589096,-7.54886 17.463144,-13.399875 26.168139,-13.195851 8.704995,0.204024 18.499681,1.256191 27.745608,8.23207"
       id="path4230"
       inkscape:connector-curvature="0"
       sodipodi:nodetypes="cssc" />
    <ellipse
       style="color:#000000;clip-rule:nonzero;display:inline;overflow:visible;visibility:visible;opacity:1;isolation:auto;mix-blend-mode:normal;color-interpolation:sRGB;color-interpolation-filters:linearRGB;solid-color:#000000;solid-opacity:1;fill:none;fill-opacity:1;fill-rule:evenodd;stroke:#000000;stroke-width:0.588;stroke-linecap:butt;stroke-linejoin:miter;stroke-miterlimit:4;stroke-dasharray:none;stroke-dashoffset:0;stroke-opacity:1;color-rendering:auto;image-rendering:auto;shape-rendering:auto;text-rendering:auto;enable-background:accumulate"
       id="path4232"
       cx="72.745079"
       cy="64.584801"
       rx="63.523876"
       ry="62.755436" />
    <path
       style="fill:none;fill-rule:evenodd;stroke:#000000;stroke-width:0.588;stroke-linecap:butt;stroke-linejoin:miter;stroke-miterlimit:4;stroke-dasharray:none;stroke-opacity:1"
       d="m 64.292307,132.71927 c -3.586025,-4.86675 3.842171,-4.86675 12.038799,-2.3053 8.196628,2.56145 13.575664,1.79301 9.989643,-3.07374"
       id="path4234"
       inkscape:connector-curvature="0"
       sodipodi:nodetypes="csc" />
  </g>
</svg>
