<?xml version="1.0" encoding="UTF-8" standalone="no"?>
<svg
   xmlns:dc="http://purl.org/dc/elements/1.1/"
   xmlns:cc="http://creativecommons.org/ns#"
   xmlns:rdf="http://www.w3.org/1999/02/22-rdf-syntax-ns#"
   xmlns:svg="http://www.w3.org/2000/svg"
   xmlns="http://www.w3.org/2000/svg"
   xmlns:sodipodi="http://sodipodi.sourceforge.net/DTD/sodipodi-0.dtd"
   xmlns:inkscape="http://www.inkscape.org/namespaces/inkscape"
   width="110mm"
   height="110mm"
   viewBox="0 0 110 110"
   version="1.1"
   id="svg847"
   inkscape:version="1.0.1 (c497b03c, 2020-09-10)"
   sodipodi:docname="zagreus.svg">
  <defs
     id="defs841" />
  <sodipodi:namedview
     id="base"
     pagecolor="#ffffff"
     bordercolor="#666666"
     borderopacity="1.0"
     inkscape:pageopacity="0.0"
     inkscape:pageshadow="2"
     inkscape:zoom="0.90672013"
     inkscape:cx="173.55193"
     inkscape:cy="260.2638"
     inkscape:document-units="mm"
     inkscape:current-layer="layer1"
     inkscape:document-rotation="0"
     showgrid="false"
     inkscape:window-width="1252"
     inkscape:window-height="755"
     inkscape:window-x="0"
     inkscape:window-y="23"
     inkscape:window-maximized="0" />
  <metadata
     id="metadata844">
    <rdf:RDF>
      <cc:Work
         rdf:about="">
        <dc:format>image/svg+xml</dc:format>
        <dc:type
           rdf:resource="http://purl.org/dc/dcmitype/StillImage" />
        <dc:title></dc:title>
      </cc:Work>
    </rdf:RDF>
  </metadata>
  <g
     inkscape:label="Layer 1"
     inkscape:groupmode="layer"
     id="layer1">
    <path
       style="fill:none;stroke:#000000;stroke-width:1.165;stroke-linecap:butt;stroke-linejoin:miter;stroke-miterlimit:4;stroke-dasharray:none;stroke-opacity:1"
       d="M 54.173205,103.71444 C 71.051535,103.5714 89.356999,90.235548 92.793112,82.861344 100.77359,65.73453 85.709065,55.212414 79.987598,63.222468 74.266129,71.232525 85.34904,84.885809 100.50217,69.071838 106.64524,62.660865 107.6037,40.095717 95.302541,22.931315 88.100612,12.634519 78.034035,5.9142569 66.669826,4.3422549 c 0,0 -6.465508,9.5006771 -16.764149,12.6474841 -10.298644,3.146809 -22.794529,-3.095427 -22.794529,-3.095427 0,0 -0.180145,-0.117346 -4.185172,3.029461 -4.005027,3.146806 -3.790403,3.927502 -3.790403,3.927502 0,0 6.172724,12.022497 3.025917,21.176845 -3.146807,9.154347 -17.5468358,16.76135 -17.5468358,16.76135 0,0 0.3381897,16.831463 9.1569738,26.21977 13.044996,13.887448 23.523247,18.84824 40.401577,18.7052 z"
       id="path1540"
       sodipodi:nodetypes="zsssccscscscsz" />
    <path
       style="fill:none;stroke:#000000;stroke-width:1;stroke-linecap:butt;stroke-linejoin:miter;stroke-miterlimit:4;stroke-dasharray:none;stroke-opacity:1"
       d="m 17.243501,63.514742 4.291101,7.313056 -7.437908,4.415952"
       id="path1542"
       sodipodi:nodetypes="ccc" />
    <path
       style="fill:none;stroke:#000000;stroke-width:1;stroke-linecap:butt;stroke-linejoin:miter;stroke-miterlimit:4;stroke-dasharray:none;stroke-opacity:1"
       d="m 42.66504,89.014268 15.161889,0.28607 0.286073,8.29613"
       id="path1544" />
    <path
       style="fill:none;stroke:#000000;stroke-width:1;stroke-linecap:butt;stroke-linejoin:miter;stroke-miterlimit:4;stroke-dasharray:none;stroke-opacity:1"
       d="m 45.79302,91.606188 9.164283,-0.2071 0.207103,5.48821"
       id="path1546" />
    <g
       id="g1603"
       transform="translate(3.3042585,-7.6296978)">
      <ellipse
         style="fill:none;stroke:#000000;stroke-width:1;stroke-linecap:square;stroke-linejoin:bevel;stroke-miterlimit:4;stroke-dasharray:none;stroke-opacity:1"
         id="path1548"
         cx="48.254879"
         cy="31.065374"
         rx="4.4527035"
         ry="4.4123087" />
      <ellipse
         style="fill:none;stroke:#000000;stroke-width:1;stroke-linecap:square;stroke-linejoin:bevel;stroke-miterlimit:4;stroke-dasharray:none;stroke-opacity:1"
         id="path1548-0"
         cx="48.254879"
         cy="30.961821"
         rx="2.5887811"
         ry="2.5483863" />
    </g>
    <ellipse
       style="fill:none;stroke:#000000;stroke-width:1;stroke-linecap:square;stroke-linejoin:bevel;stroke-miterlimit:4;stroke-dasharray:none;stroke-opacity:1"
       id="path1548-4"
       cx="15.090074"
       cy="40.762524"
       rx="4.4527035"
       ry="4.4123087" />
    <ellipse
       style="fill:none;stroke:#000000;stroke-width:1;stroke-linecap:square;stroke-linejoin:bevel;stroke-miterlimit:4;stroke-dasharray:none;stroke-opacity:1"
       id="path1548-4-0"
       cx="79.581009"
       cy="62.824993"
       rx="4.4527035"
       ry="4.4123087" />
    <path
       style="fill:none;stroke:#000000;stroke-width:1;stroke-linecap:butt;stroke-linejoin:miter;stroke-miterlimit:4;stroke-dasharray:none;stroke-opacity:1"
       d="m 83.904577,49.982807 8.64017,-0.292889 c 0,0 -5.795394,-0.257024 -6.042971,-3.912668 -0.18149,-2.679814 1.265679,-3.96238 2.575713,-4.396806 1.613633,-0.535103 3.378404,0.908038 3.378404,0.908038 l 0.270344,-10.305711"
       id="path1595"
       sodipodi:nodetypes="ccsscc" />
    <path
       style="fill:none;stroke:#000000;stroke-width:1;stroke-linecap:butt;stroke-linejoin:miter;stroke-miterlimit:4;stroke-dasharray:none;stroke-opacity:1"
       d="M 88.297883,23.330076 81.3556,25.328082 c 0,0 3.665362,-4.761921 0.938096,-7.269974 -2.805499,-2.579998 -7.185908,1.792125 -7.185908,1.792125 L 75.557293,13.6648"
       id="path1597"
       sodipodi:nodetypes="ccscc" />
    <path
       style="fill:none;stroke:#000000;stroke-width:1;stroke-linecap:butt;stroke-linejoin:miter;stroke-miterlimit:4;stroke-dasharray:none;stroke-opacity:1"
       d="m 92.33285,47.623439 c 0,0 -3.927477,-0.226937 -3.666978,-2.836369 0.251468,-2.518981 2.511374,-1.708133 3.983287,-0.160176"
       id="path1599"
       sodipodi:nodetypes="csc" />
    <path
       style="fill:none;stroke:#000000;stroke-width:1;stroke-linecap:butt;stroke-linejoin:miter;stroke-miterlimit:4;stroke-dasharray:none;stroke-opacity:1"
       d="m 19.565397,66.947242 c 0,0 25.513164,-15.139678 36.867924,-22.569337 11.35476,-7.429658 25.653346,-26.49444 25.653346,-26.49444"
       id="path1605" />
    <path
       style="fill:none;stroke:#000000;stroke-width:1;stroke-linecap:butt;stroke-linejoin:miter;stroke-miterlimit:4;stroke-dasharray:none;stroke-opacity:1"
       d="m 92.600333,35.826789 c 0,0 -13.036947,0 -21.027332,7.710022 -7.990387,7.710024 -12.756583,5.887654 -15.84059,1.401823"
       id="path1607" />
    <path
       style="fill:none;stroke:#000000;stroke-width:1;stroke-linecap:butt;stroke-linejoin:miter;stroke-miterlimit:4;stroke-dasharray:none;stroke-opacity:1"
       d="m 52.508219,89.096038 c 0,0 -0.05985,-19.436531 2.663461,-28.036447 2.663463,-8.410934 8.270752,-6.16802 12.336036,-8.831482 4.065285,-2.663463 13.317312,-13.737857 24.812254,-13.457492"
       id="path1609"
       sodipodi:nodetypes="cssc" />
    <path
       style="fill:none;stroke:#000000;stroke-width:1;stroke-linecap:butt;stroke-linejoin:miter;stroke-miterlimit:4;stroke-dasharray:none;stroke-opacity:1"
       d="m 41.295644,105.50336 c 5.341827,1.67647 16.446476,1.62886 22.408102,-0.0507"
       id="path1611"
       sodipodi:nodetypes="cc" />
  </g>
</svg>
