<?xml version="1.0" encoding="UTF-8" standalone="no"?>
<svg
   xmlns:dc="http://purl.org/dc/elements/1.1/"
   xmlns:cc="http://creativecommons.org/ns#"
   xmlns:rdf="http://www.w3.org/1999/02/22-rdf-syntax-ns#"
   xmlns:svg="http://www.w3.org/2000/svg"
   xmlns="http://www.w3.org/2000/svg"
   xmlns:sodipodi="http://sodipodi.sourceforge.net/DTD/sodipodi-0.dtd"
   xmlns:inkscape="http://www.inkscape.org/namespaces/inkscape"
   width="110mm"
   height="110mm"
   viewBox="0 0 110 110"
   version="1.1"
   id="svg847"
   inkscape:version="1.0.1 (c497b03c, 2020-09-10)"
   sodipodi:docname="zagreus.svg">
  <defs
     id="defs841" />
  <sodipodi:namedview
     id="base"
     pagecolor="#ffffff"
     bordercolor="#666666"
     borderopacity="1.0"
     inkscape:pageopacity="0.0"
     inkscape:pageshadow="2"
     inkscape:zoom="1.2916039"
     inkscape:cx="210.09791"
     inkscape:cy="210.64934"
     inkscape:document-units="mm"
     inkscape:current-layer="layer1"
     inkscape:document-rotation="0"
     showgrid="false"
     inkscape:window-width="1252"
     inkscape:window-height="755"
     inkscape:window-x="0"
     inkscape:window-y="23"
     inkscape:window-maximized="0"
     inkscape:snap-nodes="false" />
  <metadata
     id="metadata844">
    <rdf:RDF>
      <cc:Work
         rdf:about="">
        <dc:format>image/svg+xml</dc:format>
        <dc:type
           rdf:resource="http://purl.org/dc/dcmitype/StillImage" />
        <dc:title />
      </cc:Work>
    </rdf:RDF>
  </metadata>
  <g
     inkscape:label="Layer 1"
     inkscape:groupmode="layer"
     id="layer1">
    <path
       style="fill:none;stroke:#000000;stroke-width:1.165;stroke-linecap:butt;stroke-linejoin:miter;stroke-miterlimit:4;stroke-dasharray:none;stroke-opacity:1"
       d="m 54.173205,103.71444 c 16.87833,-0.14304 35.164479,-14.485148 39.64415,-23.516129 -7.141827,5.620129 -14.780853,8.004928 -20.047291,0.294065 -5.266439,-7.710864 0.99143,-22.369379 11.682975,-23.229634 10.691545,-0.860255 11.771552,14.472129 11.771552,14.472129 0,0 10.379109,-31.639154 -1.92205,-48.803556 C 88.100612,12.634519 78.034035,5.9142569 66.669826,4.3422549 c 0,0 -6.465508,9.5006771 -16.764149,12.6474841 -10.298644,3.146809 -22.794529,-3.095427 -22.794529,-3.095427 0,0 -0.180145,-0.117346 -4.185172,3.029461 -4.005027,3.146806 -8.687804,7.404833 -12.803744,15.194178 9.3291,-4.452625 16.620006,2.804308 12.448955,11.139261 C 18.239143,51.913877 6.6496452,50.150568 6.8679894,37.894907 -1.102393,54.05418 4.9528439,75.620933 13.771628,85.00924 c 13.044996,13.887448 23.523247,18.84824 40.401577,18.7052 z"
       id="path1540"
       sodipodi:nodetypes="zczzcccscscscsz" />
    <path
       style="fill:none;stroke:#000000;stroke-width:1;stroke-linecap:butt;stroke-linejoin:miter;stroke-miterlimit:4;stroke-dasharray:none;stroke-opacity:1"
       d="m 17.243501,63.514742 4.291101,7.313056 -7.437908,4.415952"
       id="path1542"
       sodipodi:nodetypes="ccc" />
    <path
       style="fill:none;stroke:#000000;stroke-width:1;stroke-linecap:butt;stroke-linejoin:miter;stroke-miterlimit:4;stroke-dasharray:none;stroke-opacity:1"
       d="m 42.66504,89.014268 15.161889,0.28607 0.286073,8.29613"
       id="path1544" />
    <path
       style="fill:none;stroke:#000000;stroke-width:1;stroke-linecap:butt;stroke-linejoin:miter;stroke-miterlimit:4;stroke-dasharray:none;stroke-opacity:1"
       d="m 45.79302,91.606188 9.164283,-0.2071 0.207103,5.48821"
       id="path1546" />
    <g
       id="g1603"
       transform="translate(3.3042585,-7.6296978)">
      <ellipse
         style="fill:none;stroke:#000000;stroke-width:1;stroke-linecap:square;stroke-linejoin:bevel;stroke-miterlimit:4;stroke-dasharray:none;stroke-opacity:1"
         id="path1548"
         cx="48.254879"
         cy="31.065374"
         rx="4.4527035"
         ry="4.4123087" />
    </g>
    <ellipse
       style="fill:none;stroke:#000000;stroke-width:1;stroke-linecap:square;stroke-linejoin:bevel;stroke-miterlimit:4;stroke-dasharray:none;stroke-opacity:1"
       id="path1548-4"
       cx="15.294922"
       cy="39.738281"
       rx="4.4527035"
       ry="4.4123087" />
    <ellipse
       style="fill:none;stroke:#000000;stroke-width:1;stroke-linecap:square;stroke-linejoin:bevel;stroke-miterlimit:4;stroke-dasharray:none;stroke-opacity:1"
       id="path1548-4-0"
       cx="73.845245"
       cy="65.89772"
       rx="4.4527035"
       ry="4.4123087" />
    <path
       style="fill:none;stroke:#000000;stroke-width:1;stroke-linecap:butt;stroke-linejoin:miter;stroke-miterlimit:4;stroke-dasharray:none;stroke-opacity:1"
       d="m 89.713085,50.619368 8.391919,-2.077021 c 0,0 -5.722853,0.949527 -6.722611,-2.575458 -0.732885,-2.584032 0.417086,-4.138651 1.608658,-4.835123 1.467715,-0.857879 3.493238,0.188224 3.493238,0.188224 L 94.613125,31.181967"
       id="path1595"
       sodipodi:nodetypes="ccsscc" />
    <path
       style="fill:none;stroke:#000000;stroke-width:1;stroke-linecap:butt;stroke-linejoin:miter;stroke-miterlimit:4;stroke-dasharray:none;stroke-opacity:1"
       d="M 88.297883,23.330076 81.3556,25.328082 c 0,0 3.665362,-4.761921 0.938096,-7.269974 -2.805499,-2.579998 -7.185908,1.792125 -7.185908,1.792125 L 75.557293,13.6648"
       id="path1597"
       sodipodi:nodetypes="ccscc" />
    <path
       style="fill:none;stroke:#000000;stroke-width:1;stroke-linecap:butt;stroke-linejoin:miter;stroke-miterlimit:4;stroke-dasharray:none;stroke-opacity:1"
       d="m 97.469473,46.564637 c 0,0 -3.88925,0.591876 -4.175154,-2.014895 -0.275994,-2.516412 2.102883,-2.191483 3.863626,-0.982151"
       id="path1599"
       sodipodi:nodetypes="csc" />
    <path
       style="fill:none;stroke:#000000;stroke-width:1;stroke-linecap:butt;stroke-linejoin:miter;stroke-miterlimit:4;stroke-dasharray:none;stroke-opacity:1"
       d="M 19.565397,66.947242 C 29.567895,58.778791 60.358055,46.09781 53.203006,27.716201"
       id="path1605"
       sodipodi:nodetypes="cc" />
    <path
       style="fill:none;stroke:#000000;stroke-width:1;stroke-linecap:butt;stroke-linejoin:miter;stroke-miterlimit:4;stroke-dasharray:none;stroke-opacity:1"
       d="M 95.187851,34.059098 C 76.704726,36.931286 70.647741,28.381478 82.086667,17.883465"
       id="path1607"
       sodipodi:nodetypes="cc" />
    <path
       style="fill:none;stroke:#000000;stroke-width:1;stroke-linecap:butt;stroke-linejoin:miter;stroke-miterlimit:4;stroke-dasharray:none;stroke-opacity:1"
       d="m 52.508219,89.096038 c 0,0 -1.471686,-19.40193 8.194374,-31.928572 9.666061,-12.526642 23.060529,-18.181298 34.894956,-20.035638"
       id="path1609"
       sodipodi:nodetypes="czc" />
    <path
       style="fill:none;stroke:#000000;stroke-width:1;stroke-linecap:butt;stroke-linejoin:miter;stroke-miterlimit:4;stroke-dasharray:none;stroke-opacity:1"
       d="m 41.295644,105.50336 c 5.341827,1.67647 16.446476,1.62886 22.408102,-0.0507"
       id="path1611"
       sodipodi:nodetypes="cc" />
  </g>
</svg>
